<?xml version="1.0" standalone="no"?>
<!DOCTYPE svg PUBLIC "-//W3C//DTD SVG 20010904//EN"
 "http://www.w3.org/TR/2001/REC-SVG-20010904/DTD/svg10.dtd">
<svg version="1.0" xmlns="http://www.w3.org/2000/svg"
 width="512.000000pt" height="512.000000pt" viewBox="0 0 512.000000 512.000000"
 preserveAspectRatio="xMidYMid meet">

<g transform="translate(0.000000,512.000000) scale(0.100000,-0.100000)"
fill="#000000" stroke="none">
<path d="M2020 4909 c-367 -26 -712 -231 -929 -552 -54 -80 -129 -246 -155
-347 -48 -180 -57 -331 -30 -508 54 -367 264 -680 584 -872 48 -29 77 -52 69
-55 -8 -2 -54 -19 -103 -36 -181 -63 -366 -161 -526 -280 -103 -77 -290 -257
-373 -359 -200 -247 -349 -564 -412 -875 -27 -134 -50 -378 -41 -429 15 -79
116 -110 173 -54 26 26 27 34 34 158 8 143 21 236 50 351 119 479 424 889 853
1148 268 162 629 261 951 261 143 0 326 43 473 111 353 163 604 483 688 879
25 117 25 353 0 470 -70 329 -256 606 -527 786 -170 113 -376 188 -549 200
-41 3 -88 6 -105 7 -16 2 -73 0 -125 -4z m271 -215 c326 -56 598 -260 744
-559 84 -171 100 -244 99 -455 0 -160 -3 -183 -28 -265 -53 -176 -128 -307
-250 -433 -138 -143 -301 -238 -491 -288 -83 -22 -124 -26 -235 -27 -75 -1
-162 5 -195 12 -331 70 -592 271 -735 566 -71 145 -91 231 -97 405 -4 119 -1
162 15 240 59 289 236 533 493 682 208 121 442 163 680 122z"/>
<path d="M3506 2849 c-44 -5 -104 -15 -134 -22 l-54 -12 -69 -185 c-105 -282
-109 -284 -404 -236 l-196 33 -41 -46 c-91 -103 -184 -266 -233 -408 l-18 -51
119 -144 c152 -182 154 -184 154 -234 0 -58 -29 -97 -254 -341 l-29 -32 23
-73 c41 -130 161 -340 234 -407 l26 -25 210 33 c302 47 296 50 391 -229 34
-102 64 -187 66 -189 1 -2 49 -12 105 -22 133 -23 366 -24 497 -1 l94 17 69
190 c37 105 76 201 86 215 10 14 35 34 56 44 l39 19 210 -34 210 -33 48 54
c62 70 130 184 180 300 62 145 67 125 -71 285 -127 146 -150 183 -150 237 0
44 21 75 157 240 l117 141 -18 51 c-55 154 -163 344 -232 407 l-29 26 -199
-27 c-298 -41 -299 -40 -395 235 -34 99 -66 183 -69 187 -13 12 -197 38 -307
42 -60 3 -146 0 -189 -5z m322 -188 c8 -5 37 -71 64 -146 62 -177 108 -239
215 -290 73 -35 145 -40 313 -20 l145 17 21 -28 c12 -15 45 -69 74 -121 l51
-93 -23 -29 c-13 -16 -58 -70 -102 -122 -43 -51 -85 -108 -93 -128 -36 -87
-33 -208 8 -295 11 -23 60 -91 109 -150 50 -60 93 -112 95 -116 8 -12 -36
-106 -85 -184 -35 -55 -47 -67 -64 -63 -11 3 -83 15 -159 27 -152 24 -198 20
-280 -21 -107 -55 -143 -105 -212 -297 -44 -124 -56 -148 -76 -153 -31 -9
-287 -11 -327 -3 -30 6 -33 12 -77 144 -65 194 -103 248 -219 307 -72 37 -165
41 -336 14 l-135 -21 -25 30 c-14 16 -47 70 -73 120 -55 106 -64 77 70 235
100 118 124 167 131 261 8 128 -19 184 -177 368 l-73 86 51 93 c29 51 62 105
74 121 l23 28 130 -21 c243 -39 323 -24 430 83 57 58 63 69 114 206 29 80 57
149 62 155 5 5 32 13 61 17 65 8 274 1 295 -11z"/>
<path d="M3567 1999 c-160 -31 -293 -149 -347 -310 -18 -53 -21 -81 -18 -165
3 -92 6 -107 40 -176 48 -97 119 -168 217 -216 74 -37 77 -37 195 -37 119 0
122 1 196 37 184 89 291 290 260 485 -31 193 -182 347 -374 382 -68 13 -102
12 -169 0z m204 -226 c208 -106 174 -419 -52 -473 -162 -39 -319 82 -319 245
0 191 200 314 371 228z"/>
</g>
</svg>
